<svg xmlns="http://www.w3.org/2000/svg" xmlns:xlink="http://www.w3.org/1999/xlink" viewBox="0 0 339.55 95.89"><defs><style>.cls-1{fill:#003872;}.cls-2{fill:url(#linear-gradient);}</style><linearGradient id="linear-gradient" x1="137.78" y1="-2.76" x2="165.75" y2="24.66" gradientUnits="userSpaceOnUse"><stop offset="0" stop-color="#ffd939"/><stop offset="1" stop-color="#dd5e00"/></linearGradient></defs><g id="Layer_2" data-name="Layer 2"><g id="Layer_1-2" data-name="Layer 1"><path class="cls-1" d="M330.64,20.76v0a4.46,4.46,0,0,1,8.91,0v0a4.46,4.46,0,0,1-8.91,0Zm8.44,0v0a4,4,0,1,0-8,0v0a4,4,0,1,0,8,0Zm-5.78-2.46h2.08a1.93,1.93,0,0,1,1.41.5,1.3,1.3,0,0,1,.38,1v0a1.38,1.38,0,0,1-1.08,1.4l1.26,1.76h-1.06l-1.13-1.61h-1v1.61h-.89Zm2,2.28c.58,0,.92-.29.92-.73v0c0-.47-.34-.73-.92-.73h-1.15v1.48Z"/><circle class="cls-2" cx="147.7" cy="6.96" r="6.96"/><path class="cls-1" d="M61.4,18.71a3.87,3.87,0,0,0-3.75,3.37L52,74.21a1,1,0,0,0,1,1.15H63.53A1.46,1.46,0,0,0,65,74.08l6-55.37Z"/><path class="cls-1" d="M217.15,18.71a3.89,3.89,0,0,0-3.77,3.38l-5.69,52.12a1,1,0,0,0,1,1.15h10.55a1.48,1.48,0,0,0,1.42-1.28l6-55.37Z"/><path class="cls-1" d="M104.67,29.33c7.82,0,11.59,4.92,10.61,13.84l-3.38,31a1,1,0,0,0,1,1.15h10.9a1,1,0,0,0,1-.93l3.84-35.12c1.46-13.44-5.35-21.78-17.79-21.78-6.79,0-12.52,2.77-17.53,8.46l-1.26,1.42,1-8.7H83.12a3.48,3.48,0,0,0-3.37,3L74,74.21a1,1,0,0,0,1,1.15H86a1,1,0,0,0,1-.93l3.39-31C91.3,34.85,96.92,29.33,104.67,29.33Z"/><path class="cls-1" d="M184.2,75.92c-10.15,0-17.53-2.57-22-7.64s-6-12.49-4.94-22.4c2-18.8,12.86-27.94,33.21-27.94a63.52,63.52,0,0,1,12.17,1.15,2.06,2.06,0,0,1,1.59,2.26l-.75,7.06a1.37,1.37,0,0,1-1.65,1.22,57.7,57.7,0,0,0-11.52-1.21c-11.92,0-18.58,5.82-19.8,17.3-.72,6.71.38,11.77,3.26,15.07,2.7,3.09,7,4.65,12.75,4.65a61,61,0,0,0,11.72-1.2,1.1,1.1,0,0,1,1.3,1.21l-.76,7.14A2.37,2.37,0,0,1,197,74.7,66.79,66.79,0,0,1,184.2,75.92Z"/><path class="cls-1" d="M143,18.71a3.87,3.87,0,0,0-3.76,3.37l-5.69,52.13a1,1,0,0,0,1,1.15h10.55a1.48,1.48,0,0,0,1.42-1.28l6-55.37Z"/><path class="cls-1" d="M268.35,73.05l-1.63-5.83a1.66,1.66,0,0,0-2.15-1.1,29,29,0,0,1-9,1.62q-11.2,0-10-11l2.7-26.17,18.77,0L263.33,18.7h-13.7l1.69-16.57h-10a3.5,3.5,0,0,0-3.48,3.13l-5.38,51.47q-2.34,21.43,21.08,21.43A32,32,0,0,0,267,75.47,2.13,2.13,0,0,0,268.35,73.05Z"/><path class="cls-1" d="M10.92,42.64H44.8a1.8,1.8,0,0,0,1.75-1.57l1-8.75a1.38,1.38,0,0,0-1.4-1.57H17.66l2.05-16.82H47.19A11.86,11.86,0,0,0,58.69,3.6,1.39,1.39,0,0,0,57.28,2H11.69a4,4,0,0,0-4,3.58L0,74.36a.88.88,0,0,0,.87,1H12a1,1,0,0,0,1-.92l3.16-29.73Z"/><path class="cls-1" d="M268.41,18.69h11.76A3.45,3.45,0,0,1,283.43,21s12.24,35.34,12.24,35.41c.28-.74,16.67-35.14,16.67-35.14a4.5,4.5,0,0,1,4.1-2.59h11.28L289.49,92.85a6.09,6.09,0,0,1-1.78,2.27,5.41,5.41,0,0,1-3.07.77H274.25l12.88-23.32Z"/></g></g></svg>