<svg xmlns="http://www.w3.org/2000/svg" width="349.49" height="61.105" viewBox="0 0 349.49 61.105">
  <g id="Group_57" data-name="Group 57" transform="translate(-148.039 -365.663)">
    <g id="Group_33" data-name="Group 33">
      <path id="Path_256" data-name="Path 256" d="M374.6,396.391a2.551,2.551,0,0,0-1.041-.082,30.325,30.325,0,0,0-4.5,1.559.28.28,0,0,0-.03.016,1.774,1.774,0,0,0-2.222.07.6.6,0,0,0-.16-.086,30.367,30.367,0,0,0-4.5-1.559,2.551,2.551,0,0,0-1.041.082.765.765,0,0,0-.327.715v4.7a.879.879,0,0,0,1.138.877l4.728-1.638a.7.7,0,0,0,.085-.046,1.777,1.777,0,0,0,2.386.066l4.669,1.618a.878.878,0,0,0,1.137-.877v-4.7A.764.764,0,0,0,374.6,396.391Z" fill="#fff"/>
      <ellipse id="Ellipse_37" data-name="Ellipse 37" cx="1.573" cy="1.672" rx="1.573" ry="1.672" transform="translate(366.386 402.951)" fill="#fff"/>
      <path id="Path_257" data-name="Path 257" d="M367.96,407.727a1.675,1.675,0,1,0,1.573,1.672A1.625,1.625,0,0,0,367.96,407.727Z" fill="#fff"/>
      <path id="Path_258" data-name="Path 258" d="M357.436,372.336a.794.794,0,0,0,.689.432.758.758,0,0,0,.4-.111.885.885,0,0,0,.3-1.162l-1.575-2.966a.771.771,0,0,0-1.087-.321.885.885,0,0,0-.3,1.162Z" fill="#fff"/>
      <path id="Path_259" data-name="Path 259" d="M348.5,377.731l2.752,1.728a.759.759,0,0,0,.4.117.786.786,0,0,0,.7-.42.885.885,0,0,0-.283-1.167l-2.752-1.727a.77.77,0,0,0-1.092.3A.885.885,0,0,0,348.5,377.731Z" fill="#fff"/>
      <path id="Path_260" data-name="Path 260" d="M346.035,388.9l3.192.027a.854.854,0,0,0,.013-1.7l-3.192-.026a.854.854,0,0,0-.013,1.7Z" fill="#fff"/>
      <path id="Path_261" data-name="Path 261" d="M377.178,372.657a.758.758,0,0,0,.4.111.791.791,0,0,0,.688-.432l1.575-2.966a.885.885,0,0,0-.3-1.162.772.772,0,0,0-1.088.321l-1.574,2.966A.885.885,0,0,0,377.178,372.657Z" fill="#fff"/>
      <path id="Path_262" data-name="Path 262" d="M384.054,380.383a.758.758,0,0,0,.4-.116l2.752-1.7a.866.866,0,0,0,.283-1.151.776.776,0,0,0-1.092-.3l-2.752,1.7a.867.867,0,0,0-.284,1.151A.789.789,0,0,0,384.054,380.383Z" fill="#fff"/>
      <path id="Path_263" data-name="Path 263" d="M389.666,389.589a.842.842,0,0,0-.012-1.682l-3.192.026a.842.842,0,0,0,.012,1.682Z" fill="#fff"/>
      <path id="Path_264" data-name="Path 264" d="M351.851,390.619a1.057,1.057,0,0,0,.978.694h.8v2.765h1.853c-2.017,1.179-4.174,2.327-4.174,2.327l1.517,1.112-2.37,1.9c.284,3.99,17.4,27.354,17.4,27.354s17.111-23.364,17.395-27.354l-2.37-1.9,1.517-1.112s-2.157-1.148-4.174-2.327h1.688v-2.765h1.184a1.057,1.057,0,0,0,.978-.694,1.172,1.172,0,0,0-.229-1.226,9.221,9.221,0,0,1-2.295-4.619,14.432,14.432,0,0,0-10.78-11.48V371.64a1.1,1.1,0,0,0-1.059-1.125h-.687v-2.479h2.871v-2.373H364.2v2.373h2.7v2.479h-.687a1.1,1.1,0,0,0-1.059,1.125v1.654a14.432,14.432,0,0,0-10.781,11.48,9.22,9.22,0,0,1-2.294,4.619A1.171,1.171,0,0,0,351.851,390.619Zm24.01,13.9c-3.223,7.261-7.394,10.867-8.01,11.914-.616-1.047-4.787-4.653-8.01-11.914a18.966,18.966,0,0,1-1.636-10.438H377.5A18.976,18.976,0,0,1,375.861,404.516ZM356.45,385.221a11.627,11.627,0,0,1,23.02,0,11.862,11.862,0,0,0,1.433,3.842H355.017A11.862,11.862,0,0,0,356.45,385.221Z" fill="#fff"/>
      <path id="Path_265" data-name="Path 265" d="M368.456,377.4a.907.907,0,0,0,0,1.811,7.725,7.725,0,0,1,7.428,6.44.869.869,0,0,0,.835.726.81.81,0,0,0,.169-.018.846.846,0,0,0,.541-.388.94.94,0,0,0,.125-.68A9.465,9.465,0,0,0,368.456,377.4Z" fill="#fff"/>
      <path id="Path_266" data-name="Path 266" d="M279.917,407.185a.94.94,0,0,0-.929.58c-3.025,7.477-5.474,10.132-13.2,10.132h-.294a2.708,2.708,0,0,1-.4-.019,2.05,2.05,0,0,1,.011-.325l3.323-30.45a1.233,1.233,0,0,1,.064-.371,1.445,1.445,0,0,1,.507-.042h5.113a.628.628,0,0,0,.657-.888.8.8,0,0,0-.845-.727H257.4a.628.628,0,0,0-.656.888.8.8,0,0,0,.844.727h3.5a2.963,2.963,0,0,1,.4.018,2.061,2.061,0,0,1-.011.326l-3.323,30.45a1.191,1.191,0,0,1-.064.371,1.445,1.445,0,0,1-.507.042h-3.822a.627.627,0,0,0-.656.887.8.8,0,0,0,.845.728h24.3c.953,0,1.38-.355,1.474-1.228l1.078-10.327a.561.561,0,0,0-.136-.488A1.048,1.048,0,0,0,279.917,407.185Z" fill="#fff"/>
      <path id="Path_267" data-name="Path 267" d="M300.228,408.955a8.962,8.962,0,0,0-8.727-7.227,8.853,8.853,0,0,0-7.007,3.107,8.293,8.293,0,0,0-1.588,7.216,9.072,9.072,0,0,0,8.727,7.226,8.854,8.854,0,0,0,7.008-3.107A8.293,8.293,0,0,0,300.228,408.955Zm-6.4,7.273a3.109,3.109,0,0,1-2.5,1.205c-1.748,0-2.906-1.171-3.442-3.482-.8-3.446-.2-7.3,1.428-9.173a3.106,3.106,0,0,1,2.5-1.205c1.748,0,2.906,1.171,3.442,3.481C296.052,410.5,295.452,414.358,293.825,416.228Z" fill="#fff"/>
      <path id="Path_268" data-name="Path 268" d="M315.627,415.133a6.7,6.7,0,0,0,.152.936,4.075,4.075,0,0,0,4.223,3.16c2.014,0,3.412-1.23,4.274-3.761.085-.251-.123-.511-.519-.645-.427-.145-.676.016-.76.2l-.01.025c-.4,1.127-1.1,2.471-2.212,2.471a1.276,1.276,0,0,1-1.224-1.129,6.527,6.527,0,0,1-.031-2.173l1.366-11.176a.994.994,0,0,0-.987-1.114h-2.807c-.869,0-1.069.222-1.2.858a13.2,13.2,0,0,0-.178,1.746,6.125,6.125,0,0,0-5.5-2.94,8.325,8.325,0,0,0-6.271,2.786,9.1,9.1,0,0,0-1.755,8.336c.92,3.715,4.243,6.517,7.73,6.517C312.636,419.229,314.517,417.886,315.627,415.133Zm-4.76,1.943c-1.235,0-2.743-1.057-3.327-3.417-.782-3.159-.144-6.98,1.452-8.7a3.2,3.2,0,0,1,2.651-1.216,2.74,2.74,0,0,1,1.931.863c1.169,1.16,1.661,3.282,1.386,5.973l-.036.337C314.508,414.773,312.991,417.076,310.867,417.076Z" fill="#fff"/>
      <path id="Path_269" data-name="Path 269" d="M346.246,414.892c-.427-.145-.677.017-.766.211-.584,1.438-1.462,2.3-2.35,2.3a1.077,1.077,0,0,1-.95-.9c-.285-1.152.162-2.822.635-4.59.545-2.035,1.108-4.139.683-5.854a5.671,5.671,0,0,0-5.675-4.243,7.094,7.094,0,0,0-6.75,4.973,10.612,10.612,0,0,0-.239-1.215,4.641,4.641,0,0,0-4.5-3.758c-1.448,0-3.319.632-4.012,3.642-.068.307.26.58.616.667a.526.526,0,0,0,.686-.291c.442-1.53,1.035-2.306,1.762-2.306.86,0,1.228.965,1.37,1.539a15.776,15.776,0,0,1-.106,4.634l-1.02,8.274a1.05,1.05,0,0,0,.036.409.853.853,0,0,0,.929.661h2.982c.923,0,1.038-.449,1.085-.983l.974-7.757c.436-3.373,2.118-6.777,4.89-6.777a2.261,2.261,0,0,1,2.384,1.913c.325,1.314-.2,3.316-.713,5.253-.524,1.992-1.02,3.874-.694,5.191a4.428,4.428,0,0,0,4.6,3.422c2.153,0,3.855-1.371,4.668-3.762C346.85,415.286,346.642,415.027,346.246,414.892Z" fill="#fff"/>
      <path id="Path_270" data-name="Path 270" d="M437.9,419.159c2.149,0,3.444-1.092,4.2-3.545.067-.251-.222-.459-.449-.527a.363.363,0,0,0-.483.178c-.731,1.807-1.213,2.173-1.752,2.173h0c-.455,0-.824-.445-.989-1.187-.214-.974.149-2.166.357-4.471l.693-7.923a1.148,1.148,0,0,0-.032-.354.639.639,0,0,0-.692-.569l-4.676-.014h-.007c-.7,0-.775.383-.8.877l-.664,7.428c-.243,2.821-.926,6.181-2.793,6.181H429.8c-.486,0-1.087-.371-1.315-1.4a12.336,12.336,0,0,1,.427-4.5,13.676,13.676,0,0,0,.438-5.18,4.888,4.888,0,0,0-4.828-3.8H424.5a4.333,4.333,0,0,0-4.48,3.544c-.067.251.222.459.449.527a.363.363,0,0,0,.486-.185c.425-1.222,1.006-1.952,1.554-1.952h0a1.152,1.152,0,0,1,1.061,1.045,9.472,9.472,0,0,1-.467,4.114,11.03,11.03,0,0,0-.489,4.99,5.624,5.624,0,0,0,5.44,4.513h.025c2.721,0,4.343-1.543,5.036-4.827.032.213.072.431.125.671a4.966,4.966,0,0,0,4.635,4.189Z" fill="#fff"/>
      <path id="Path_271" data-name="Path 271" d="M444.641,417.685a4.929,4.929,0,0,0,3.586,1.474h.021a4.891,4.891,0,0,0,4.834-3.684c.068-.251-.22-.46-.447-.528a.367.367,0,0,0-.481.168c-.667,1.361-1.445,2.109-2.191,2.109h0a.679.679,0,0,1-.5-.228,2,2,0,0,1-.344-1.536l1.71-16.106,3.043.01a.392.392,0,0,0,.312-.121.529.529,0,0,0,.048-.466c-.057-.257-.157-.495-.5-.5l-2.8-.01.525-6-1.385,0-.038.176c-.3,2.207-1.708,3.1-4.808,3.1l-.1.065-.255,2.643-2.2-.008a.385.385,0,0,0-.312.121.531.531,0,0,0-.048.467c.056.257.157.495.5.5l1.953.006-1.375,14.034A5.4,5.4,0,0,0,444.641,417.685Z" fill="#fff"/>
      <path id="Path_272" data-name="Path 272" d="M464.155,415.01a.363.363,0,0,0-.485.181c-.5,1.336-1.27,2.133-2.073,2.133h0a.868.868,0,0,1-.662-.26,2.9,2.9,0,0,1-.389-2.115l2.947-27.136a.86.86,0,0,0-.152-.665.891.891,0,0,0-.662-.172l-8.76-.026a.389.389,0,0,0-.313.12.531.531,0,0,0-.048.467c.057.257.157.5.5.5l2.988.008a.892.892,0,0,1,.31.027.7.7,0,0,0,.275.346l-2.573,24.842a4.873,4.873,0,0,0,1.078,4.518,5.008,5.008,0,0,0,3.719,1.449h.023a4.6,4.6,0,0,0,4.728-3.685C464.671,415.287,464.382,415.078,464.155,415.01Z" fill="#fff"/>
      <path id="Path_273" data-name="Path 273" d="M478.951,414.543c-.237-.071-.5.028-.541.15a5.048,5.048,0,0,1-4.348,3.072h-.013c-1.641-.006-2.755-1.123-3.221-3.231a16.138,16.138,0,0,1-.338-3.748c.192,0,.5,0,.652,0h.237c.352-.009.7-.024,1.032-.044.663-.039,1.255-.1,1.808-.18a9.564,9.564,0,0,0,2.678-.732,3.948,3.948,0,0,0,1.578-1.234,3.407,3.407,0,0,0,.6-1.821,2.419,2.419,0,0,0-.007-.37,4.133,4.133,0,0,0-1.463-2.557,6.277,6.277,0,0,0-3.121-1.4,9.036,9.036,0,0,0-1.44-.118H473a8.857,8.857,0,0,0-7,2.845,7.831,7.831,0,0,0-1.391,6.859,9.172,9.172,0,0,0,8.553,7.059h.024a6.452,6.452,0,0,0,6.115-3.979l.008-.023A.486.486,0,0,0,478.951,414.543ZM472,404.215h0c.525-.692.838-.835,1.146-.835h0c.2,0,.8,0,1.106,1.4a4.493,4.493,0,0,1-.665,3.749,3.5,3.5,0,0,1-3.056,1.255A10.563,10.563,0,0,1,472,404.215Z" fill="#fff"/>
      <path id="Path_274" data-name="Path 274" d="M497.446,405.506a3.811,3.811,0,0,0-3.663-2.792h-.012c-1.329,0-3.518.7-4.4,5.033a7.823,7.823,0,0,0-.146-.875c-.46-2.079-1.393-4.791-3.693-5.27a4.586,4.586,0,0,0-4.793,2.3,2.7,2.7,0,0,0-.215,2.751.416.416,0,0,0,.291.232c.2.014.313-.207.373-.393a4.766,4.766,0,0,1,.741-1.95,1.007,1.007,0,0,1,1.425-.01,3.069,3.069,0,0,1,1.09,1.9,14.867,14.867,0,0,1-.157,3.66l-.927,7.994a1.1,1.1,0,0,0,.032.355.637.637,0,0,0,.692.568l4.278.015h.006c.653,0,.78-.287.8-.878l.627-6.426c.6-6.54,1.925-7.284,2.868-7.29a.586.586,0,0,1,.6.365,1.062,1.062,0,0,1-.233.831,2.045,2.045,0,0,0-.332,1.667,2.192,2.192,0,0,0,2.144,1.609h.01a2.68,2.68,0,0,0,2.078-.939A2.809,2.809,0,0,0,497.446,405.506Z" fill="#fff"/>
      <path id="Path_275" data-name="Path 275" d="M414.968,415.987a10.385,10.385,0,0,0,3.142-3.294,9.913,9.913,0,0,0,1.316-4.178,6.667,6.667,0,0,0-.735-3.868,8.308,8.308,0,0,0-2.532-2.8h0a12.79,12.79,0,0,0-3.64-1.732,18.785,18.785,0,0,0-2.671-.6,16.409,16.409,0,0,0,2.475-.686,13.251,13.251,0,0,0,3.3-1.745,9.816,9.816,0,0,0,2.4-2.5,6.715,6.715,0,0,0,1.092-3.123,7.531,7.531,0,0,0-.322-2.717,6.14,6.14,0,0,0-1.846-2.8A11.11,11.11,0,0,0,413,383.8a20.506,20.506,0,0,0-6.576-.822c-.152,0-1.068.023-2.336.052l-1,.023-4.054.036.006-.012-1.268.012-.162.013-6.662.059a.57.57,0,1,0,.01,1.14l4.962-.044-3.114,30.972a.843.843,0,0,0,.846.927l4.269-.038a.843.843,0,0,0,.831-.758l3.133-31.156,4.644-.042c.561.034,1.118.1,1.652.182a5.823,5.823,0,0,1,2.428.974,4.754,4.754,0,0,1,1.629,2.234,9.209,9.209,0,0,1,.364,4.034,12.609,12.609,0,0,1-.809,3.7,6.244,6.244,0,0,1-1.542,2.282,5.37,5.37,0,0,1-2.163,1.176,10.47,10.47,0,0,1-2.45.355l-.224.007-.1,1.139.944-.008c2.343-.021,4.066.7,5.12,2.129a8.787,8.787,0,0,1,1.272,6.078,17.01,17.01,0,0,1-.939,4.552,7.226,7.226,0,0,1-1.918,2.87,7.086,7.086,0,0,1-3.036,1.529,19.277,19.277,0,0,1-4.379.477c-.3,0-12.582,0-15.375,0a.607.607,0,0,0,0,1.215c3.062,0,15.8.005,16.242,0a26.646,26.646,0,0,0,6.754-.918A16.491,16.491,0,0,0,414.968,415.987Z" fill="#fff"/>
    </g>
    <rect id="Rectangle_1141" data-name="Rectangle 1141" width="1.532" height="61.105" transform="translate(230.34 365.663)" fill="#a5a4a4"/>
    <g id="Group_34" data-name="Group 34" transform="translate(34.173 14.493)">
      <rect id="Rectangle_1142" data-name="Rectangle 1142" width="5.943" height="15.939" rx="2.737" transform="translate(113.867 387.522) rotate(-45)" fill="#fff"/>
      <rect id="Rectangle_1143" data-name="Rectangle 1143" width="5.943" height="25.004" rx="2.737" transform="translate(113.866 374.703) rotate(-45)" fill="#fff"/>
      <rect id="Rectangle_1144" data-name="Rectangle 1144" width="5.943" height="24.874" rx="2.737" transform="translate(113.91 361.928) rotate(-45)" fill="#fff"/>
      <rect id="Rectangle_1145" data-name="Rectangle 1145" width="5.943" height="15.939" rx="2.737" transform="translate(138.629 351.171) rotate(45)" fill="#fff"/>
      <rect id="Rectangle_1146" data-name="Rectangle 1146" width="5.943" height="25.004" rx="2.737" transform="translate(151.448 351.17) rotate(45)" fill="#fff"/>
      <rect id="Rectangle_1147" data-name="Rectangle 1147" width="5.943" height="43.153" rx="2.737" transform="translate(164.223 351.213) rotate(45)" fill="#fff"/>
      <rect id="Rectangle_1148" data-name="Rectangle 1148" width="5.943" height="15.939" rx="2.737" transform="translate(174.975 375.923) rotate(135)" fill="#fff"/>
      <rect id="Rectangle_1149" data-name="Rectangle 1149" width="5.943" height="25.004" rx="2.737" transform="translate(174.976 388.742) rotate(135)" fill="#fff"/>
      <rect id="Rectangle_1150" data-name="Rectangle 1150" width="5.943" height="24.874" rx="2.737" transform="translate(174.933 401.517) rotate(135)" fill="#fff"/>
      <rect id="Rectangle_1151" data-name="Rectangle 1151" width="5.943" height="15.939" rx="2.737" transform="translate(150.214 412.274) rotate(-135)" fill="#fff"/>
      <rect id="Rectangle_1152" data-name="Rectangle 1152" width="5.943" height="25.004" rx="2.737" transform="translate(137.395 412.275) rotate(-135)" fill="#fff"/>
      <rect id="Rectangle_1153" data-name="Rectangle 1153" width="5.943" height="43.153" rx="2.737" transform="translate(124.62 412.232) rotate(-135)" fill="#fff"/>
    </g>
  </g>
</svg>
